<svg version="1.1" xmlns="http://www.w3.org/2000/svg" xmlns:xlink="http://www.w3.org/1999/xlink" style="" xml:space="preserve" width="512.005" height="512.005"><rect id="backgroundrect" width="100%" height="100%" x="0" y="0" fill="none" stroke="none"/>
















<g class="currentLayer" style=""><title>Layer 1</title><g id="svg_1" class="selected" fill-opacity="1" fill="#ffffff">
	<g id="svg_2" fill="#ffffff" fill-opacity="1">
		<path d="M509.53278905153275,474.5059509277344 l-145.60000610351562,-145.60000610351562 c28.202999114990234,-34.83700180053711 45.183998107910156,-79.10399627685547 45.183998107910156,-127.31700134277344 c0,-111.74400329589844 -90.9229965209961,-202.66700744628906 -202.66700744628906,-202.66700744628906 S3.7837846875190735,89.84393310546875 3.7837846875190735,201.58792114257812 s90.9229965209961,202.66700744628906 202.66700744628906,202.66700744628906 c48.2130012512207,0 92.4800033569336,-16.981000900268555 127.31700134277344,-45.183998107910156 l145.60000610351562,145.60000610351562 c4.159999847412109,4.159999847412109 9.621000289916992,6.250999927520752 15.083000183105469,6.250999927520752 s10.92300033569336,-2.0910000801086426 15.083000183105469,-6.250999927520752 C517.8747690320015,496.3299255371094 517.8747690320015,482.8469543457031 509.53278905153275,474.5059509277344 zM206.45078831911087,361.5879211425781 c-88.23500061035156,0 -160,-71.76499938964844 -160,-160 s71.76499938964844,-160 160,-160 s160,71.76499938964844 160,160 S294.68479710817337,361.5879211425781 206.45078831911087,361.5879211425781 z" id="svg_3" fill="#ffffff" fill-opacity="1"/>
	</g>
</g><g id="svg_4">
</g><g id="svg_5">
</g><g id="svg_6">
</g><g id="svg_7">
</g><g id="svg_8">
</g><g id="svg_9">
</g><g id="svg_10">
</g><g id="svg_11">
</g><g id="svg_12">
</g><g id="svg_13">
</g><g id="svg_14">
</g><g id="svg_15">
</g><g id="svg_16">
</g><g id="svg_17">
</g><g id="svg_18">
</g></g></svg>